<svg xmlns="http://www.w3.org/2000/svg" xmlns:xlink="http://www.w3.org/1999/xlink" version="1.1" x="0px" y="0px" viewBox="0 0 64 80" enable-background="new 0 0 64 64" xml:space="preserve"><g><path d="M60.707,59.293c-0.2-0.2-4.729-4.636-14.509-6.864c0.458-0.771,0.839-1.583,1.128-2.429H48c2.206,0,4-1.794,4-4   s-1.794-4-4-4v2c1.103,0,2,0.897,2,2s-0.897,2-2,2h-0.183C47.925,47.345,48,46.681,48,46h-2c0,6.617-6.28,12-14,12s-14-5.383-14-12   h-2c0,0.681,0.075,1.345,0.183,2H16c-1.103,0-2-0.897-2-2s0.897-2,2-2v-2c-2.206,0-4,1.794-4,4s1.794,4,4,4h0.674   c0.29,0.847,0.67,1.658,1.129,2.429c-9.781,2.228-14.31,6.664-14.51,6.864l1.414,1.414c0.046-0.046,4.572-4.456,14.362-6.496   C21.98,57.711,26.685,60,32,60s10.02-2.289,12.931-5.789c9.739,2.033,14.317,6.452,14.363,6.498L60.707,59.293z"/><path d="M29,42v4c0,1.654,1.345,3,2.999,3C33.654,49,35,47.654,35,46v-4h-2v4c0,0.551-0.449,1-1.001,1C31.448,47,31,46.551,31,46   v-4H29z"/><path d="M36.527,53.271c1.066,0.222,1.562,1.146,1.583,1.185l1.785-0.903c-0.037-0.073-0.916-1.791-2.916-2.23   c-1.68-0.368-3.568,0.268-5.603,1.896l1.249,1.562C34.131,53.575,35.48,53.053,36.527,53.271z"/><path d="M20,28v-0.046c0.753,0.031,2.922,0.042,9.587,0.045L24.586,33h10l-3.793,3.793l1.414,1.414L39.414,31h-10l3-3   C35.478,28,39.276,28,44.001,28v0C47.309,28,50,25.308,50,22c0-3.09-2.349-5.641-5.354-5.964C43.3,10.293,38.147,6,32,6   c-6.864,0-12.502,5.347-12.969,12.094C16.736,18.546,15,20.574,15,23C15,25.757,17.243,28,20,28z M20,20h1v-1   c0-6.065,4.935-11,11-11s11,4.935,11,11v1h2v-1c0-0.294-0.025-0.582-0.044-0.872C46.699,18.56,48,20.125,48,22c0,2.206-1.794,4-4,4   v0c-0.021,0-23.799,0-24,0c-1.654,0-3-1.346-3-3S18.346,20,20,20z"/><path d="M22.5,44c0.629,0,1.166-0.388,1.389-0.938l1.664,0.832l0.895-1.789l-6-3l-0.895,1.789l1.667,0.834   C21.083,41.955,21,42.217,21,42.5C21,43.329,21.672,44,22.5,44z"/><path d="M43.553,39.105l-6,3l0.895,1.789l1.664-0.832C40.334,43.612,40.871,44,41.5,44c0.828,0,1.5-0.671,1.5-1.5   c0-0.284-0.083-0.546-0.22-0.772l1.667-0.833L43.553,39.105z"/></g></svg>