<svg xmlns="http://www.w3.org/2000/svg" xmlns:xlink="http://www.w3.org/1999/xlink" version="1.1" x="0px" y="0px" viewBox="0 0 64 80" enable-background="new 0 0 64 64" xml:space="preserve"><g><path d="M24.961,24.855l-6.01,6.813l8.508-3.178l-1.795,8.907l5.786-7.013L34.349,39l1.505-8.967l6.82,6.029l-3.193-8.525   l8.917,1.798l-7.016-5.786L50,20.651l-8.96-1.507l6.005-6.812l-8.504,3.178l1.792-8.908l-5.784,7.012L31.652,5l-1.507,8.967   l-6.819-6.031l3.194,8.528l-8.916-1.797l7.011,5.785L16,23.347L24.961,24.855z M24.376,17.891l5.002,1.008l-1.779-4.75l3.8,3.36   l0.845-5.032l1.624,4.829l3.244-3.933l-1.004,4.991l4.758-1.777l-3.359,3.812l5.018,0.843l-4.833,1.625l3.93,3.242l-4.997-1.009   l1.779,4.752l-3.802-3.361l-0.844,5.032l-1.625-4.828l-3.243,3.93l1.006-4.991l-4.76,1.778l3.36-3.811l-5.019-0.844l4.83-1.624   L24.376,17.891z"/><path d="M60.697,59.29c-0.199-0.2-4.729-4.636-14.51-6.864c0.459-0.771,0.84-1.583,1.129-2.429h0.674c2.206,0,4-1.794,4-4   s-1.794-4-4-4v2c1.103,0,2,0.897,2,2s-0.897,2-2,2h-0.183c0.108-0.655,0.183-1.319,0.183-2h-2c0,6.617-6.28,12-14,12   s-14-5.383-14-12h-2c0,0.681,0.074,1.345,0.183,2H15.99c-1.103,0-2-0.897-2-2s0.897-2,2-2v-2c-2.206,0-4,1.794-4,4s1.794,4,4,4   h0.674c0.289,0.847,0.67,1.658,1.129,2.429C8.012,54.654,3.482,59.09,3.283,59.29l1.414,1.414   c0.046-0.046,4.572-4.456,14.361-6.496c2.912,3.5,7.616,5.789,12.932,5.789s10.02-2.289,12.932-5.789   c9.738,2.033,14.316,6.452,14.363,6.498L60.697,59.29z"/><path d="M28.99,41.997v4c0,1.654,1.346,3,2.999,3c1.654,0,3.001-1.346,3.001-3v-4h-2v4c0,0.551-0.449,1-1.001,1   c-0.551,0-0.999-0.449-0.999-1v-4H28.99z"/><polygon points="21.438,45.892 27.227,42.997 21.438,40.103 20.543,41.892 22.754,42.997 20.543,44.103  "/><polygon points="42.543,40.103 36.754,42.997 42.543,45.892 43.438,44.103 41.227,42.997 43.438,41.892  "/><path d="M26.948,52.993c0.173,0.05,0.588,0.464,0.835,0.711c0.605,0.606,1.293,1.293,2.207,1.293s1.602-0.687,2.207-1.293   c0.21-0.209,0.538-0.538,0.714-0.662c0.063,0.079,0.141,0.189,0.204,0.278c0.443,0.627,1.186,1.677,2.875,1.677   c0.106,0,2.633-0.029,3.895-2.553l-1.789-0.895c-0.698,1.397-2.06,1.446-2.105,1.447c-0.626,0-0.845-0.27-1.242-0.832   c-0.329-0.465-0.826-1.168-1.758-1.168c-0.914,0-1.602,0.687-2.207,1.293c-0.247,0.248-0.662,0.662-0.751,0.711   c-0.173-0.05-0.588-0.464-0.835-0.711c-0.605-0.606-1.293-1.293-2.207-1.293c-1.375,0-2.575,1.161-2.707,1.293l1.411,1.417   C25.985,53.421,26.599,52.997,26.948,52.993z"/></g></svg>