<?xml version="1.0" encoding="utf-8"?>
<!-- Generator: Adobe Illustrator 24.1.2, SVG Export Plug-In . SVG Version: 6.00 Build 0)  -->
<svg version="1.1" id="Layer_1" xmlns="http://www.w3.org/2000/svg" xmlns:xlink="http://www.w3.org/1999/xlink" x="0px" y="0px"
	 viewBox="0 0 64 75.46" style="enable-background:new 0 0 64 75.46;" xml:space="preserve">
<style type="text/css">
	.st0{fill:#333333;}
</style>
<g>
	<path class="st0" d="M24.96,26.73l-6.01,6.81l8.51-3.18l-1.8,8.91l5.79-7.01l2.9,8.62l1.51-8.97l6.82,6.03l-3.19-8.52l8.92,1.8
		l-7.02-5.79l8.62-2.9l-8.96-1.51l6.01-6.81l-8.5,3.18l1.79-8.91l-5.78,7.01l-2.92-8.61l-1.51,8.97l-6.82-6.03l3.19,8.53l-8.92-1.8
		l7.01,5.78l-8.6,2.9L24.96,26.73z M24.38,19.77l5,1.01l-1.78-4.75l3.8,3.36l0.85-5.03l1.62,4.83l3.24-3.93l-1,4.99l4.76-1.78
		l-3.36,3.81l5.02,0.84l-4.83,1.62l3.93,3.24l-5-1.01l1.78,4.75l-3.8-3.36l-0.84,5.03l-1.62-4.83l-3.24,3.93l1.01-4.99l-4.76,1.78
		l3.36-3.81l-5.02-0.84l4.83-1.62L24.38,19.77z"/>
	<path class="st0" d="M60.7,61.17c-0.2-0.2-4.73-4.64-14.51-6.86c0.46-0.77,0.84-1.58,1.13-2.43h0.67c2.21,0,4-1.79,4-4s-1.79-4-4-4
		v2c1.1,0,2,0.9,2,2s-0.9,2-2,2h-0.18c0.11-0.65,0.18-1.32,0.18-2h-2c0,6.62-6.28,12-14,12s-14-5.38-14-12h-2
		c0,0.68,0.07,1.35,0.18,2h-0.18c-1.1,0-2-0.9-2-2s0.9-2,2-2v-2c-2.21,0-4,1.79-4,4s1.79,4,4,4h0.67c0.29,0.85,0.67,1.66,1.13,2.43
		c-9.78,2.23-14.31,6.66-14.51,6.86l1.42,1.41c0.05-0.05,4.57-4.46,14.36-6.5c2.91,3.5,7.62,5.79,12.93,5.79s10.02-2.29,12.93-5.79
		c9.74,2.03,14.32,6.45,14.36,6.5L60.7,61.17z"/>
	<path class="st0" d="M28.99,43.88v4c0,1.65,1.35,3,3,3s3-1.35,3-3v-4h-2v4c0,0.55-0.45,1-1,1s-1-0.45-1-1v-4H28.99z"/>
	<polygon class="st0" points="21.44,47.77 27.23,44.88 21.44,41.98 20.54,43.77 22.75,44.88 20.54,45.98 	"/>
	<polygon class="st0" points="42.54,41.98 36.75,44.88 42.54,47.77 43.44,45.98 41.23,44.88 43.44,43.77 	"/>
	<path class="st0" d="M26.95,54.87c0.17,0.05,0.59,0.46,0.83,0.71c0.6,0.61,1.29,1.29,2.21,1.29s1.6-0.69,2.21-1.29
		c0.21-0.21,0.54-0.54,0.71-0.66c0.06,0.08,0.14,0.19,0.2,0.28c0.45,0.63,1.19,1.68,2.88,1.68c0.11,0,2.63-0.03,3.9-2.55l-1.79-0.9
		c-0.7,1.4-2.06,1.45-2.1,1.45c-0.63,0-0.85-0.27-1.24-0.83c-0.34-0.47-0.84-1.17-1.77-1.17c-0.91,0-1.6,0.69-2.21,1.29
		c-0.25,0.25-0.66,0.66-0.75,0.71c-0.17-0.05-0.59-0.46-0.83-0.71c-0.61-0.61-1.3-1.29-2.21-1.29c-1.38,0-2.58,1.16-2.71,1.29
		l1.41,1.42C25.99,55.3,26.6,54.88,26.95,54.87z"/>
</g>
</svg>
