<?xml version="1.0" encoding="utf-8"?>
<!-- Generator: Adobe Illustrator 24.1.2, SVG Export Plug-In . SVG Version: 6.00 Build 0)  -->
<svg version="1.1" id="Layer_1" xmlns="http://www.w3.org/2000/svg" xmlns:xlink="http://www.w3.org/1999/xlink" x="0px" y="0px"
	 viewBox="0 0 100 121.08" style="enable-background:new 0 0 100 121.08;" xml:space="preserve">
<style type="text/css">
	.st0{fill:#333333;}
</style>
<path class="st0" d="M56.41,44.29c0.04,0,0.09,0,0.13-0.01l1.51-0.21c0.55-0.07,0.93-0.58,0.86-1.12c-0.07-0.55-0.58-0.93-1.12-0.86
	l-1.51,0.21c-0.55,0.07-0.93,0.58-0.86,1.12C55.49,43.93,55.91,44.29,56.41,44.29z"/>
<path class="st0" d="M49.35,58.92c-0.08-0.55-0.58-0.93-1.12-0.86l-1.51,0.2c-0.55,0.07-0.93,0.58-0.86,1.12
	c0.07,0.5,0.5,0.87,0.99,0.87c0.04,0,0.09,0,0.13-0.01l1.51-0.2C49.04,59.97,49.42,59.47,49.35,58.92z"/>
<path class="st0" d="M67.34,67.25l-1.51,0.2c-0.55,0.07-0.93,0.58-0.86,1.12c0.07,0.5,0.5,0.87,0.99,0.87c0.04,0,0.09,0,0.14-0.01
	l1.51-0.2c0.55-0.07,0.93-0.58,0.86-1.12C68.39,67.56,67.89,67.17,67.34,67.25z"/>
<path class="st0" d="M72.03,60.71c-0.55,0.04-0.96,0.53-0.92,1.08l0.12,1.52c0.04,0.52,0.48,0.92,1,0.92c0.03,0,0.05,0,0.08,0
	c0.55-0.04,0.96-0.53,0.92-1.08l-0.12-1.52C73.06,61.08,72.59,60.67,72.03,60.71z"/>
<path class="st0" d="M40.57,36.26c0.03,0,0.05,0,0.08,0c0.55-0.04,0.96-0.53,0.92-1.08l-0.12-1.52c-0.04-0.55-0.52-0.97-1.08-0.92
	c-0.55,0.04-0.96,0.53-0.92,1.08l0.12,1.52C39.61,35.86,40.05,36.26,40.57,36.26z"/>
<path class="st0" d="M50.51,40.01c0.03,0,0.05,0,0.08,0c0.55-0.04,0.96-0.53,0.92-1.08l-0.12-1.52c-0.04-0.55-0.51-0.97-1.08-0.92
	c-0.55,0.04-0.96,0.53-0.92,1.08l0.12,1.52C49.56,39.62,49.99,40.01,50.51,40.01z"/>
<path class="st0" d="M32.22,80.63c-0.55,0.04-0.96,0.53-0.92,1.08l0.12,1.52c0.04,0.52,0.48,0.92,1,0.92c0.03,0,0.05,0,0.08,0
	c0.55-0.04,0.96-0.53,0.92-1.08l-0.12-1.52C33.25,81,32.78,80.59,32.22,80.63z"/>
<path class="st0" d="M27.71,68.67l-1.51,0.21c-0.55,0.07-0.93,0.58-0.86,1.12c0.07,0.5,0.5,0.87,0.99,0.87c0.04,0,0.09,0,0.14-0.01
	l1.51-0.21c0.55-0.07,0.93-0.58,0.86-1.12C28.76,68.98,28.26,68.59,27.71,68.67z"/>
<path class="st0" d="M39.76,63.44c2.36-2.36,2.36-6.2,0-8.56s-6.2-2.36-8.56,0s-2.36,6.2,0,8.56c1.14,1.14,2.66,1.77,4.28,1.77
	S38.61,64.58,39.76,63.44z M32.61,56.29c0.79-0.79,1.83-1.19,2.87-1.19c1.04,0,2.08,0.4,2.87,1.19c1.58,1.58,1.58,4.15,0,5.73
	c-0.77,0.77-1.78,1.19-2.87,1.19s-2.1-0.42-2.87-1.19C31.03,60.44,31.03,57.87,32.61,56.29z"/>
<path class="st0" d="M20.25,80.5c-1.79,1.79-1.79,4.71,0,6.5c0.87,0.87,2.02,1.35,3.25,1.35s2.38-0.48,3.25-1.35
	c1.79-1.79,1.79-4.71,0-6.5C24.95,78.71,22.04,78.71,20.25,80.5z M25.33,85.58c-0.98,0.98-2.69,0.98-3.67,0
	c-1.01-1.01-1.01-2.66,0-3.67s2.66-1.01,3.67,0C26.34,82.92,26.34,84.57,25.33,85.58z"/>
<path class="st0" d="M53.57,65.51c-1.23,0-2.38,0.48-3.25,1.35c-1.79,1.79-1.79,4.71,0,6.5l0,0c0.9,0.9,2.07,1.34,3.25,1.34
	s2.35-0.45,3.25-1.34c0.87-0.87,1.35-2.02,1.35-3.25s-0.48-2.38-1.35-3.25S54.79,65.51,53.57,65.51z M55.4,71.94
	c-1.01,1.01-2.66,1.01-3.67,0s-1.01-2.66,0-3.67c0.98-0.98,2.69-0.98,3.67,0c0.49,0.49,0.76,1.14,0.76,1.83S55.9,71.45,55.4,71.94z"
	/>
<path class="st0" d="M42.73,51.09c1.38,0,2.76-0.53,3.82-1.58c1.02-1.02,1.58-2.38,1.58-3.82s-0.56-2.8-1.58-3.82
	c-2.11-2.1-5.53-2.1-7.63,0c-1.02,1.02-1.58,2.38-1.58,3.82s0.56,2.8,1.58,3.82C39.96,50.56,41.34,51.09,42.73,51.09z M40.32,43.29
	c0.66-0.66,1.53-0.99,2.4-0.99c0.87,0,1.74,0.33,2.4,0.99c0.64,0.64,0.99,1.49,0.99,2.4s-0.35,1.76-0.99,2.4
	c-1.33,1.33-3.48,1.32-4.81,0c-0.64-0.64-0.99-1.49-0.99-2.4C39.33,44.78,39.68,43.93,40.32,43.29z"/>
<path class="st0" d="M38.34,69.72c-1.44,0-2.8,0.56-3.82,1.58c-1.02,1.02-1.58,2.38-1.58,3.82s0.56,2.8,1.58,3.82
	s2.37,1.58,3.82,1.58s2.8-0.56,3.82-1.58c1.02-1.02,1.58-2.38,1.58-3.82s-0.56-2.8-1.58-3.82C41.14,70.29,39.78,69.72,38.34,69.72z
	 M40.74,77.52c-1.28,1.28-3.52,1.28-4.81,0c-0.64-0.64-0.99-1.5-0.99-2.4c0-0.91,0.35-1.76,0.99-2.4c0.64-0.64,1.49-1,2.4-1
	s1.76,0.35,2.4,1c0.64,0.64,0.99,1.5,0.99,2.4C41.74,76.03,41.38,76.88,40.74,77.52z"/>
<path class="st0" d="M67.72,56.45c0-1.88-0.73-3.64-2.06-4.97c-1.33-1.33-3.09-2.06-4.97-2.06s-3.64,0.73-4.97,2.06
	c-2.74,2.74-2.74,7.19,0,9.93c1.33,1.33,3.09,2.06,4.97,2.06s3.64-0.73,4.97-2.06C66.99,60.09,67.72,58.32,67.72,56.45z
	 M60.69,61.47c-1.34,0-2.6-0.52-3.55-1.47c-1.96-1.96-1.96-5.15,0-7.1c0.95-0.95,2.21-1.47,3.55-1.47s2.6,0.52,3.55,1.47
	c0.95,0.95,1.47,2.21,1.47,3.55s-0.52,2.6-1.47,3.55C63.3,60.95,62.04,61.47,60.69,61.47z"/>
<path class="st0" d="M40.25,17.68c-0.38,0.03-0.7,0.28-0.84,0.63l-28.54,72.4c-0.75,1.91-0.31,3.99,1.15,5.43
	c0.97,0.96,2.22,1.46,3.5,1.46c0.65,0,1.31-0.13,1.95-0.39l71.39-29.47c0.35-0.14,0.58-0.47,0.61-0.85
	c0.05-0.58,0.93-14.54-16.96-32.42C54.63,16.58,40.83,17.62,40.25,17.68z M16.7,95.35c-1.36,0.56-2.59,0.04-3.28-0.64
	s-1.23-1.89-0.69-3.27l24.73-62.72c0.04,0,0.07,0.02,0.11,0.01c0.12-0.01,11.75-0.82,26.68,14.11
	c14.93,14.95,14.27,26.73,14.26,26.84c0,0.05,0.01,0.1,0.02,0.15L16.7,95.35z M80.51,69.01c-0.06-3.05-1.31-14.03-14.86-27.57
	c-13.5-13.5-24.35-14.68-27.41-14.72l2.78-7.06c2.77,0.02,14.9,1.05,30.07,16.22c15.13,15.13,16.32,27.45,16.38,30.25L80.51,69.01z"
	/>
</svg>
