<svg xmlns="http://www.w3.org/2000/svg" xmlns:xlink="http://www.w3.org/1999/xlink" version="1.1" x="0px" y="0px" viewBox="0 0 64 80" enable-background="new 0 0 64 64" xml:space="preserve"><g><path d="M20,32.007h24c0.552,0,1-0.447,1-1v-2h1c0.552,0,1-0.447,1-1v-3c0-0.553-0.448-1-1-1h-1v-2c0-0.553-0.448-1-1-1H20   c-0.552,0-1,0.447-1,1v9C19,31.56,19.448,32.007,20,32.007z M21,23.007h22v1.998l0,0.002c0,0.001,0,0.002,0,0.002v2.996l0,0.002   c0,0.001,0,0.002,0,0.002v1.998H21V23.007z"/><rect x="23" y="24.007" width="2" height="5"/><rect x="27" y="24.007" width="2" height="5"/><rect x="31" y="24.007" width="2" height="5"/><rect x="35" y="24.007" width="2" height="5"/><rect x="39" y="24.007" width="2" height="5"/><rect x="31" y="9.007" width="2" height="6"/><rect x="20.121" y="12.886" transform="matrix(0.7071 0.7071 -0.7071 0.7071 16.5907 -12.282)" width="5.999" height="2"/><rect x="40.121" y="10.886" transform="matrix(0.7071 0.7071 -0.7071 0.7071 21.8628 -25.01)" width="2" height="5.999"/><path d="M60.707,59.293c-0.2-0.199-4.729-4.636-14.51-6.863c0.458-0.771,0.84-1.583,1.129-2.43H48c2.206,0,4-1.794,4-4   s-1.794-4-4-4v2c1.103,0,2,0.897,2,2s-0.897,2-2,2h-0.183C47.925,47.345,48,46.681,48,46h-2c0,6.617-6.28,12-14,12   s-14-5.384-14-12.001h-2c0,0.681,0.075,1.346,0.183,2.001H16c-1.103,0-2-0.897-2-2s0.897-2,2-2v-2c-2.206,0-4,1.794-4,4   s1.794,4,4,4h0.674c0.289,0.847,0.67,1.658,1.128,2.43c-9.781,2.228-14.31,6.664-14.51,6.863l1.414,1.414   c0.046-0.046,4.572-4.456,14.362-6.497C21.98,57.711,26.685,60,32,60c5.315,0,10.02-2.289,12.932-5.789   c9.739,2.033,14.316,6.452,14.363,6.498L60.707,59.293z"/><path d="M29,42v4c0,1.654,1.345,3,2.999,3C33.654,49,35,47.654,35,46v-4h-2v4c0,0.552-0.449,1-1.001,1C31.448,47,31,46.552,31,46   v-4H29z"/><circle cx="23.5" cy="42.501" r="1.5"/><circle cx="40.5" cy="42.501" r="1.5"/><path d="M38.64,51.769l-1.28-1.537c-5.27,4.392-10.501,0.18-10.722-0.001l-1.278,1.538c0.044,0.036,3,2.443,6.905,2.443   C34.232,54.212,36.441,53.601,38.64,51.769z"/><path d="M44.546,36.063c-3.515-2.344-6.965-0.097-7.11,0l1.109,1.664c0.025-0.016,2.474-1.611,4.892,0L44.546,36.063z"/><path d="M26.545,36.063c-3.516-2.344-6.965-0.097-7.11,0l1.109,1.664c0.024-0.016,2.474-1.611,4.892,0L26.545,36.063z"/></g></svg>