<?xml version="1.0" encoding="utf-8"?>
<!-- Generator: Adobe Illustrator 24.1.2, SVG Export Plug-In . SVG Version: 6.00 Build 0)  -->
<svg version="1.1" id="Layer_1" xmlns="http://www.w3.org/2000/svg" xmlns:xlink="http://www.w3.org/1999/xlink" x="0px" y="0px"
	 viewBox="0 0 64 76.02" style="enable-background:new 0 0 64 76.02;" xml:space="preserve">
<style type="text/css">
	.st0{fill:#333333;}
</style>
<g>
	<path class="st0" d="M20,34.65h24c0.55,0,1-0.45,1-1v-2h1c0.55,0,1-0.45,1-1v-3c0-0.55-0.45-1-1-1h-1v-2c0-0.55-0.45-1-1-1H20
		c-0.55,0-1,0.45-1,1v9C19,34.2,19.45,34.65,20,34.65z M21,25.65h22v2l0,0l0,0v3l0,0l0,0v2H21V25.65z"/>
	<rect x="23" y="26.65" class="st0" width="2" height="5"/>
	<rect x="27" y="26.65" class="st0" width="2" height="5"/>
	<rect x="31" y="26.65" class="st0" width="2" height="5"/>
	<rect x="35" y="26.65" class="st0" width="2" height="5"/>
	<rect x="39" y="26.65" class="st0" width="2" height="5"/>
	<rect x="31" y="11.65" class="st0" width="2" height="6"/>
	<rect x="22.12" y="13.53" transform="matrix(0.7071 -0.7071 0.7071 0.7071 -4.915 21.189)" class="st0" width="2" height="6"/>
	<rect x="38.12" y="15.53" transform="matrix(0.7071 -0.7071 0.7071 0.7071 0.3573 33.9167)" class="st0" width="6" height="2"/>
	<path class="st0" d="M60.71,61.94c-0.2-0.2-4.73-4.64-14.51-6.86c0.46-0.77,0.84-1.58,1.13-2.43H48c2.21,0,4-1.79,4-4s-1.79-4-4-4
		v2c1.1,0,2,0.9,2,2s-0.9,2-2,2h-0.18c0.11-0.65,0.18-1.32,0.18-2h-2c0,6.62-6.28,12-14,12s-14-5.38-14-12h-2
		c0,0.68,0.08,1.35,0.18,2H16c-1.1,0-2-0.9-2-2s0.9-2,2-2v-2c-2.21,0-4,1.79-4,4s1.79,4,4,4h0.67c0.29,0.85,0.67,1.66,1.13,2.43
		c-9.78,2.23-14.31,6.66-14.51,6.86l1.41,1.41c0.05-0.05,4.57-4.46,14.36-6.5c2.91,3.5,7.62,5.79,12.93,5.79s10.02-2.29,12.93-5.79
		c9.74,2.03,14.32,6.45,14.36,6.5L60.71,61.94z"/>
	<path class="st0" d="M29,44.65v4c0,1.65,1.34,3,3,3c1.65,0,3-1.35,3-3v-4h-2v4c0,0.55-0.45,1-1,1s-1-0.45-1-1v-4H29z"/>
	<circle class="st0" cx="23.5" cy="45.15" r="1.5"/>
	<circle class="st0" cx="40.5" cy="45.15" r="1.5"/>
	<path class="st0" d="M38.64,54.41l-1.28-1.54c-5.27,4.39-10.5,0.18-10.72,0l-1.28,1.54c0.04,0.04,3,2.44,6.9,2.44
		C34.23,56.86,36.44,56.25,38.64,54.41z"/>
	<path class="st0" d="M44.55,38.71c-3.51-2.34-6.97-0.1-7.11,0l1.11,1.66c0.03-0.02,2.47-1.61,4.89,0L44.55,38.71z"/>
	<path class="st0" d="M26.55,38.71c-3.52-2.34-6.97-0.1-7.11,0l1.11,1.66c0.02-0.02,2.47-1.61,4.89,0L26.55,38.71z"/>
</g>
</svg>
