<svg xmlns="http://www.w3.org/2000/svg" xmlns:xlink="http://www.w3.org/1999/xlink" version="1.1" x="0px" y="0px" viewBox="0 0 64 80" enable-background="new 0 0 64 64" xml:space="preserve"><g><path d="M32,29c4.411,0,8-3.589,8-8s-3.589-8-8-8s-8,3.589-8,8S27.589,29,32,29z M32,15c3.309,0,6,2.691,6,6s-2.691,6-6,6   s-6-2.691-6-6S28.691,15,32,15z"/><path d="M32,11c0.552,0,1-0.448,1-1V5c0-0.552-0.448-1-1-1s-1,0.448-1,1v5C31,10.552,31.448,11,32,11z"/><path d="M33,37v-5c0-0.552-0.448-1-1-1s-1,0.448-1,1v5c0,0.552,0.448,1,1,1S33,37.552,33,37z"/><path d="M42,21c0,0.552,0.448,1,1,1h5c0.552,0,1-0.448,1-1s-0.448-1-1-1h-5C42.448,20,42,20.448,42,21z"/><path d="M16,22h5c0.552,0,1-0.448,1-1s-0.448-1-1-1h-5c-0.552,0-1,0.448-1,1S15.448,22,16,22z"/><path d="M39.778,14.222c0.256,0,0.512-0.098,0.707-0.293l3.535-3.535c0.391-0.391,0.391-1.023,0-1.414s-1.023-0.391-1.414,0   l-3.535,3.535c-0.391,0.391-0.391,1.023,0,1.414C39.267,14.124,39.522,14.222,39.778,14.222z"/><path d="M24.929,28.071c-0.391-0.391-1.023-0.391-1.414,0l-3.535,3.535c-0.391,0.391-0.391,1.023,0,1.414   c0.195,0.195,0.451,0.293,0.707,0.293s0.512-0.098,0.707-0.293l3.535-3.535C25.319,29.095,25.319,28.462,24.929,28.071z"/><path d="M43.313,33.313c0.256,0,0.512-0.098,0.707-0.293c0.391-0.391,0.391-1.023,0-1.414l-3.535-3.535   c-0.391-0.391-1.023-0.391-1.414,0s-0.391,1.023,0,1.414l3.535,3.535C42.802,33.216,43.058,33.313,43.313,33.313z"/><path d="M23.515,13.929c0.195,0.195,0.451,0.293,0.707,0.293s0.512-0.098,0.707-0.293c0.391-0.391,0.391-1.023,0-1.414   l-3.535-3.535c-0.391-0.391-1.023-0.391-1.414,0s-0.391,1.023,0,1.414L23.515,13.929z"/><path d="M46.198,52.429c0.458-0.771,0.839-1.583,1.128-2.429H48c2.206,0,4-1.794,4-4s-1.794-4-4-4v2c1.103,0,2,0.897,2,2   s-0.897,2-2,2h-0.183C47.925,47.345,48,46.681,48,46h-2c0,6.617-6.28,12-14,12s-14-5.383-14-12h-2c0,0.681,0.075,1.345,0.183,2H16   c-1.103,0-2-0.897-2-2s0.897-2,2-2v-2c-2.206,0-4,1.794-4,4s1.794,4,4,4h0.674c0.29,0.847,0.67,1.658,1.129,2.429   c-9.781,2.228-14.31,6.664-14.51,6.864l1.414,1.414c0.046-0.046,4.572-4.456,14.362-6.496C21.98,57.711,26.685,60,32,60   s10.02-2.289,12.931-5.789c9.739,2.033,14.317,6.452,14.363,6.498l1.413-1.416C60.507,59.093,55.979,54.657,46.198,52.429z"/><path d="M29,42v4c0,1.654,1.345,3,2.999,3C33.654,49,35,47.654,35,46v-4h-2v4c0,0.551-0.449,1-1.001,1C31.448,47,31,46.551,31,46   v-4H29z"/><circle cx="23.5" cy="42.5" r="1.5"/><circle cx="40.5" cy="42.5" r="1.5"/><path d="M25.36,51.768c0.044,0.037,3,2.444,6.905,2.444c1.968,0,4.176-0.611,6.375-2.444l-1.28-1.536   c-5.27,4.392-10.501,0.179-10.722-0.002L25.36,51.768z"/></g></svg>