<?xml version="1.0" encoding="utf-8"?>
<!-- Generator: Adobe Illustrator 24.1.2, SVG Export Plug-In . SVG Version: 6.00 Build 0)  -->
<svg version="1.1"
	 id="Layer_1" xmlns:cc="http://creativecommons.org/ns#" xmlns:dc="http://purl.org/dc/elements/1.1/" xmlns:inkscape="http://www.inkscape.org/namespaces/inkscape" xmlns:rdf="http://www.w3.org/1999/02/22-rdf-syntax-ns#" xmlns:sodipodi="http://sodipodi.sourceforge.net/DTD/sodipodi-0.dtd" xmlns:svg="http://www.w3.org/2000/svg"
	 xmlns="http://www.w3.org/2000/svg" xmlns:xlink="http://www.w3.org/1999/xlink" x="0px" y="0px" viewBox="0 0 100 126.14"
	 style="enable-background:new 0 0 100 126.14;" xml:space="preserve">
<style type="text/css">
	.st0{fill:#333333;}
</style>
<g transform="translate(0,-952.36218)">
	<path class="st0" d="M47,969.43c-0.05,0.01-0.11,0.02-0.16,0.03c-0.02,0.01-0.04,0.02-0.06,0.03c-9,1.98-16.69,10.49-16.69,20.27
		c0,3.76,1.44,6.84,3.22,9.68H33c-3.26,0-6,3-6,6.25c0,3.04,2.33,5.51,5.28,5.72l10.84,33.95c0.02,0.12,0.06,0.24,0.12,0.34
		l3.81,11.99c0.21,0.66,0.72,1.13,1.25,1.37s1.11,0.34,1.69,0.34s1.15-0.1,1.69-0.34c0.53-0.25,1.04-0.72,1.25-1.37l3.81-11.99
		c0.01-0.02,0.02-0.04,0.03-0.06l0.09-0.22c0-0.03,0-0.06,0-0.09l10.84-33.92c2.95-0.21,5.28-2.68,5.28-5.72
		c0-3.25-2.74-6.25-6-6.25h-0.31c1.78-2.84,3.22-5.92,3.22-9.68c0-9.84-7.58-18.37-16.69-20.27c-0.52-0.18-1.09,0.09-1.28,0.61
		s0.09,1.09,0.61,1.28c0.07,0.03,0.15,0.04,0.23,0.05c8.14,1.7,15.12,9.54,15.12,18.34c0,3.89-1.57,7.05-3.72,10.12
		c-0.31,0.46-0.19,1.08,0.26,1.39c0.16,0.11,0.35,0.17,0.55,0.17h2c1.93,0,4,2.21,4,4.25c0,2.12-1.63,3.75-3.69,3.75H46
		c-0.55,0-1,0.45-1,1v8c0,1.68-1.32,3-3,3s-3-1.32-3-3v-8c0-0.55-0.45-1-1-1h-5.31c-2.06,0-3.69-1.63-3.69-3.75
		c0-2.04,2.07-4.25,4-4.25h2c0.55-0.01,0.99-0.46,0.99-1.01c0-0.2-0.06-0.39-0.17-0.55c-2.15-3.07-3.72-6.23-3.72-10.12
		c0-8.71,7.08-16.56,15.12-18.34c0.55-0.06,0.95-0.56,0.88-1.11C48.04,969.77,47.55,969.37,47,969.43z M43.97,978.43
		c-0.17,0.01-0.33,0.07-0.47,0.16c-3.83,2.12-6.5,6.14-6.5,10.87c-0.01,0.55,0.43,1.01,0.99,1.01c0.55,0.01,1.01-0.43,1.01-0.99
		c0-0.01,0-0.02,0-0.03c0-3.98,2.26-7.32,5.5-9.12c0.5-0.22,0.73-0.81,0.51-1.32C44.83,978.61,44.41,978.37,43.97,978.43z
		 M34.38,1011.45H37v7c0,2.75,2.25,5,5,5c0.26,0,0.5-0.02,0.75-0.06l-3.16,4.47L34.38,1011.45L34.38,1011.45z M48.94,1011.45h2.12
		l-1.06,1.53L48.94,1011.45z M53.5,1011.45h5.91l-4.28,8.84l-3.91-5.56L53.5,1011.45z M61.62,1011.45h4l-5.22,16.4l-4-5.69
		L61.62,1011.45z M47,1012.16l1.78,2.56l-1.78,2.53V1012.16z M50,1016.44l4.12,5.87l-4.12,8.47l-4.09-8.47L50,1016.44z
		 M44.56,1024.19l4.34,8.9l-4.62,9.46l-3.94-12.34L44.56,1024.19L44.56,1024.19z M55.44,1024.19l4.22,6.03l-3.94,12.34l-4.59-9.5
		L55.44,1024.19L55.44,1024.19z M50,1035.37l4.84,9.93l-3.78,11.81c-0.01,0.03-0.04,0.07-0.22,0.16c-0.18,0.08-0.49,0.16-0.84,0.16
		s-0.66-0.07-0.84-0.16c-0.18-0.08-0.21-0.13-0.22-0.16l-3.78-11.81L50,1035.37z"/>
</g>
</svg>
