<svg xmlns:dc="http://purl.org/dc/elements/1.1/" xmlns:cc="http://creativecommons.org/ns#" xmlns:rdf="http://www.w3.org/1999/02/22-rdf-syntax-ns#" xmlns:svg="http://www.w3.org/2000/svg" xmlns="http://www.w3.org/2000/svg" xmlns:sodipodi="http://sodipodi.sourceforge.net/DTD/sodipodi-0.dtd" xmlns:inkscape="http://www.inkscape.org/namespaces/inkscape" version="1.1" x="0px" y="0px" viewBox="0 0 100 125"><g transform="translate(0,-952.36218)"><path style="text-indent:0;text-transform:none;direction:ltr;block-progression:tb;baseline-shift:baseline;color:#000000;enable-background:accumulate;" d="m 47,957.36814 a 1.002073,1.0016588 0 0 0 -0.15625,0.0312 1.0001,0.99968664 0 0 0 -0.0625,0.0312 c -8.997877,1.98384 -16.6875,10.49404 -16.6875,20.27286 0,3.76245 1.442957,6.84178 3.21875,9.6835 l -0.3125,0 c -3.264535,0 -6,2.99623 -6,6.24742 0,3.03673 2.330794,5.50878 5.28125,5.71638 L 43.125,1033.3055 a 1.0001,0.99968664 0 0 0 0.125,0.3436 l 3.8125,11.995 c 0.210403,0.6591 0.716144,1.1287 1.25,1.3745 0.533856,0.2459 1.110546,0.3436 1.6875,0.3436 0.576954,0 1.153644,-0.098 1.6875,-0.3436 0.533856,-0.2458 1.039597,-0.7154 1.25,-1.3745 l 3.8125,-11.995 a 1.0001,0.99968664 0 0 0 0.03125,-0.062 l 0.09375,-0.2186 a 1.0001,0.99968664 0 0 0 0,-0.094 L 67.71875,999.35078 C 70.669206,999.14318 73,996.67113 73,993.6344 c 0,-3.25119 -2.735465,-6.24742 -6,-6.24742 l -0.3125,0 c 1.775793,-2.84172 3.21875,-5.92105 3.21875,-9.6835 0,-9.83992 -7.583371,-18.37145 -16.6875,-20.27286 a 1.0001,0.99968664 0 1 0 -0.4375,1.93669 c 8.137111,1.69945 15.125,9.53778 15.125,18.33617 0,3.88586 -1.573578,7.04619 -3.71875,10.12082 A 1.0001,0.99968664 0 0 0 65,989.38615 l 2,0 c 1.927745,0 4,2.20736 4,4.24825 0,2.11965 -1.631339,3.74845 -3.6875,3.74845 l -21.3125,0 a 1.0001,0.99968664 0 0 0 -1,0.99958 l 0,7.99667 c 0,1.6786 -1.320703,2.9988 -3,2.9988 -1.679297,0 -3,-1.3202 -3,-2.9988 l 0,-7.99667 a 1.0001,0.99968664 0 0 0 -1,-0.99958 l -5.3125,0 c -2.056161,0 -3.6875,-1.6288 -3.6875,-3.74845 0,-2.04089 2.072255,-4.24825 4,-4.24825 l 2,0 a 1.0001,0.99968664 0 0 0 0.8125,-1.56185 c -2.145172,-3.07463 -3.71875,-6.23496 -3.71875,-10.12082 0,-8.71469 7.082127,-16.56289 15.125,-18.33617 A 1.0059637,1.0055479 0 0 0 47,957.36814 z m -3.03125,8.99628 A 1.0001,0.99968664 0 0 0 43.5,966.52061 c -3.825139,2.12425 -6.5,6.14025 -6.5,10.8705 a 1.0001,0.99968664 0 1 0 2,0 c 0,-3.97544 2.257545,-7.32056 5.5,-9.12123 a 1.0001,0.99968664 0 0 0 -0.53125,-1.90546 z m -9.59375,33.0176 2.625,0 0,6.99708 c 0,2.7516 2.247297,4.998 5,4.998 0.258066,0 0.502253,-0.024 0.75,-0.062 l -3.15625,4.4669 -5.21875,-16.39948 z m 14.5625,0 2.125,0 -1.0625,1.53058 -1.0625,-1.53058 z m 4.5625,0 5.90625,0 -4.28125,8.84008 -3.90625,-5.5602 2.28125,-3.27988 z m 8.125,0 4,0 -5.21875,16.39948 -4,-5.6852 5.21875,-10.71428 z M 47,1000.1005 l 1.78125,2.5614 -1.78125,2.5302 0,-5.0916 z m 3,4.2795 4.125,5.8725 -4.125,8.4653 -4.09375,-8.4653 L 50,1004.38 z m -5.4375,7.7467 4.34375,8.9026 -4.625,9.4649 -3.9375,-12.3387 4.21875,-6.0288 z m 10.875,0 4.21875,6.0288 -3.9375,12.3387 -4.59375,-9.4961 4.3125,-8.8714 z M 50,1023.3096 l 4.84375,9.9334 -3.78125,11.8076 c -0.0084,0.026 -0.03929,0.074 -0.21875,0.1562 -0.17946,0.083 -0.492737,0.1562 -0.84375,0.1562 -0.351013,0 -0.66429,-0.074 -0.84375,-0.1562 -0.17946,-0.083 -0.210384,-0.13 -0.21875,-0.1562 L 45.15625,1033.243 50,1023.3096 z" fill="#000000" fill-opacity="1" stroke="none" marker="none" visibility="visible" display="inline" overflow="visible"/></g></svg>