<svg xmlns="http://www.w3.org/2000/svg" xmlns:xlink="http://www.w3.org/1999/xlink" version="1.1" x="0px" y="0px" viewBox="0 0 64 80" enable-background="new 0 0 64 64" xml:space="preserve"><g><path d="M60.707,59.293c-0.199-0.199-4.729-4.636-14.51-6.863c0.458-0.771,0.84-1.583,1.129-2.43H48c2.206,0,4-1.794,4-4   s-1.794-4-4-4v2c1.103,0,2,0.897,2,2s-0.897,2-2,2h-0.183C47.925,47.345,48,46.681,48,46h-2c0,6.617-6.28,12-14,12s-14-5.383-14-12   h-2c0,0.681,0.075,1.345,0.183,2H16c-1.103,0-2-0.897-2-2s0.897-2,2-2v-2c-2.206,0-4,1.794-4,4s1.794,4,4,4h0.674   c0.289,0.847,0.671,1.658,1.129,2.43c-9.78,2.228-14.311,6.664-14.51,6.863l1.414,1.414c0.046-0.046,4.572-4.456,14.361-6.496   C21.979,57.711,26.685,60,32,60s10.021-2.289,12.932-5.789c9.738,2.033,14.316,6.452,14.363,6.498L60.707,59.293z"/><path d="M29,42v4c0,1.654,1.346,3,2.999,3C33.653,49,35,47.654,35,46v-4h-2v4c0,0.552-0.449,1-1.001,1C31.448,47,31,46.552,31,46   v-4H29z"/><path d="M25,43.997c1.104,0,2-0.895,2-2h-4C23,43.103,23.896,43.997,25,43.997z"/><path d="M44,41.997h-4c0,1.105,0.896,2,2,2S44,43.103,44,41.997z"/><path d="M41,50l-2-0.013C38.992,50.296,38.781,53,34,53v2C40.92,55,41,50.05,41,50z"/><path d="M46.496,36.129c-3.951-2.258-7.831-0.093-7.993,0l0.992,1.736c0.031-0.018,3.039-1.695,6.009,0L46.496,36.129z"/><rect x="21" y="39" width="7.011" height="2"/><path d="M31.304,28.704c0.195,0.195,0.451,0.293,0.707,0.293s0.512-0.098,0.707-0.293l3-3c0.391-0.391,0.391-1.023,0-1.414l-3-3   c-0.391-0.391-1.023-0.391-1.414,0l-3,3c-0.391,0.391-0.391,1.023,0,1.414L31.304,28.704z M32.011,23.411l1.586,1.586l-1.586,1.586   l-1.586-1.586L32.011,23.411z"/><path d="M16.011,14.812v15.185c0,1.654,1.346,3,3,3h26c1.654,0,3-1.346,3-3V14.812c1.161-0.414,2-1.514,2-2.815   c0-1.654-1.346-3-3-3s-3,1.346-3,3c0,1.009,0.504,1.898,1.27,2.442l-6.218,6.995l-5.397-6.938c0.81-0.538,1.346-1.456,1.346-2.499   c0-1.654-1.346-3-3-3s-3,1.346-3,3c0,1.043,0.536,1.961,1.346,2.499l-5.397,6.938l-6.218-6.995c0.766-0.544,1.27-1.434,1.27-2.442   c0-1.654-1.346-3-3-3s-3,1.346-3,3C14.011,13.299,14.85,14.398,16.011,14.812z M47.011,10.997c0.552,0,1,0.448,1,1s-0.448,1-1,1   s-1-0.448-1-1S46.459,10.997,47.011,10.997z M32.011,10.997c0.552,0,1,0.448,1,1s-0.448,1-1,1s-1-0.448-1-1   S31.459,10.997,32.011,10.997z M25.044,23.996c0.297-0.01,0.574-0.15,0.756-0.385l6.211-7.985l6.211,7.985   c0.182,0.234,0.459,0.375,0.756,0.385c0.329,0.027,0.584-0.113,0.78-0.335l6.253-7.034v13.37c0,0.552-0.448,1-1,1h-26   c-0.552,0-1-0.448-1-1v-13.37l6.253,7.034C24.46,23.883,24.727,24.022,25.044,23.996z M17.011,10.997c0.552,0,1,0.448,1,1   s-0.448,1-1,1s-1-0.448-1-1S16.459,10.997,17.011,10.997z"/></g></svg>