<?xml version="1.0" encoding="utf-8"?>
<!-- Generator: Adobe Illustrator 24.1.2, SVG Export Plug-In . SVG Version: 6.00 Build 0)  -->
<svg version="1.1" id="Layer_1" xmlns="http://www.w3.org/2000/svg" xmlns:xlink="http://www.w3.org/1999/xlink" x="0px" y="0px"
	 viewBox="0 0 64 74.33" style="enable-background:new 0 0 64 74.33;" xml:space="preserve">
<style type="text/css">
	.st0{fill:#333333;}
</style>
<g>
	<path class="st0" d="M60.71,61.26c-0.2-0.2-4.73-4.64-14.51-6.86c0.46-0.77,0.84-1.58,1.13-2.43H48c2.21,0,4-1.79,4-4s-1.79-4-4-4
		v2c1.1,0,2,0.9,2,2s-0.9,2-2,2h-0.18c0.11-0.65,0.18-1.32,0.18-2h-2c0,6.62-6.28,12-14,12s-14-5.38-14-12h-2
		c0,0.68,0.08,1.35,0.18,2H16c-1.1,0-2-0.9-2-2s0.9-2,2-2v-2c-2.21,0-4,1.79-4,4s1.79,4,4,4h0.67c0.29,0.85,0.67,1.66,1.13,2.43
		c-9.78,2.23-14.31,6.66-14.51,6.86l1.41,1.41c0.05-0.05,4.57-4.46,14.36-6.5c2.92,3.51,7.62,5.8,12.94,5.8s10.02-2.29,12.93-5.79
		c9.74,2.03,14.32,6.45,14.36,6.5L60.71,61.26z"/>
	<path class="st0" d="M29,43.97v4c0,1.65,1.35,3,3,3c1.65,0,3-1.35,3-3v-4h-2v4c0,0.55-0.45,1-1,1s-1-0.45-1-1v-4H29z"/>
	<path class="st0" d="M25,45.97c1.1,0,2-0.9,2-2h-4C23,45.07,23.9,45.97,25,45.97z"/>
	<path class="st0" d="M44,43.97h-4c0,1.1,0.9,2,2,2S44,45.07,44,43.97z"/>
	<path class="st0" d="M41,51.97l-2-0.01c-0.01,0.31-0.22,3.01-5,3.01v2C40.92,56.97,41,52.02,41,51.97z"/>
	<path class="st0" d="M46.5,38.1c-3.95-2.26-7.83-0.09-7.99,0l0.99,1.74c0.03-0.02,3.04-1.69,6.01,0L46.5,38.1z"/>
	<rect x="21" y="40.97" class="st0" width="7.01" height="2"/>
	<path class="st0" d="M31.3,30.67c0.2,0.2,0.46,0.3,0.71,0.3s0.51-0.1,0.71-0.29l3-3c0.39-0.39,0.39-1.02,0-1.41l-3-3
		c-0.39-0.39-1.02-0.39-1.41,0l-3,3c-0.39,0.39-0.39,1.02,0,1.41L31.3,30.67z M32.01,25.38l1.59,1.59l-1.59,1.59l-1.58-1.59
		L32.01,25.38z"/>
	<path class="st0" d="M16.01,16.78v15.19c0,1.65,1.35,3,3,3h26c1.65,0,3-1.35,3-3V16.78c1.16-0.41,2-1.51,2-2.82c0-1.65-1.35-3-3-3
		s-3,1.35-3,3c0,1.01,0.5,1.9,1.27,2.44l-6.22,6.99l-5.4-6.94c0.81-0.54,1.35-1.46,1.35-2.5c0-1.65-1.35-3-3-3s-3,1.35-3,3
		c0,1.04,0.54,1.96,1.35,2.5l-5.4,6.94l-6.22-6.99c0.77-0.54,1.27-1.43,1.27-2.44c0-1.65-1.35-3-3-3s-3,1.35-3,3
		C14.01,15.27,14.85,16.37,16.01,16.78z M47.01,12.97c0.55,0,1,0.45,1,1s-0.45,1-1,1s-1-0.45-1-1S46.46,12.97,47.01,12.97z
		 M32.01,12.97c0.55,0,1,0.45,1,1s-0.45,1-1,1s-1-0.45-1-1S31.46,12.97,32.01,12.97z M25.04,25.97c0.3-0.01,0.57-0.15,0.76-0.39
		l6.21-7.99l6.21,7.99c0.18,0.23,0.46,0.38,0.76,0.39c0.33,0.03,0.58-0.11,0.78-0.33l6.25-7.03v13.36c0,0.55-0.45,1-1,1h-26
		c-0.55,0-1-0.45-1-1V18.6l6.25,7.03C24.46,25.85,24.73,25.99,25.04,25.97z M17.01,12.97c0.55,0,1,0.45,1,1s-0.45,1-1,1s-1-0.45-1-1
		S16.46,12.97,17.01,12.97z"/>
</g>
</svg>
