<svg xmlns="http://www.w3.org/2000/svg" xmlns:xlink="http://www.w3.org/1999/xlink" version="1.1" x="0px" y="0px" viewBox="0 0 96 120" enable-background="new 0 0 96 96" xml:space="preserve"><path d="M16.848,65.853c6.784,0,12.098-3.178,12.098-7.234V28.699l34.886-8.165v26.03c-2.042-2.222-5.978-3.699-10.6-3.699  c-6.784,0-12.098,3.178-12.098,7.234c0,4.056,5.313,7.234,12.098,7.234s12.098-3.177,12.1-7.232V50.1V8.003l-37.886,8.868v38.211  c-2.042-2.223-5.977-3.699-10.598-3.699c-6.784,0-12.098,3.178-12.098,7.236C4.75,62.675,10.063,65.853,16.848,65.853z"/><path d="M73.27,38.668l-0.825-0.083v38.446c-2.042-2.222-5.977-3.698-10.598-3.698c-6.784,0-12.098,3.177-12.098,7.232  c0,4.058,5.313,7.236,12.098,7.236c6.783,0,12.096-3.177,12.098-7.234v-0.001V50.816c10.321,0.321,15.911,7.2,15.968,7.271  l1.338,1.681v-2.147C91.25,40.679,73.449,38.687,73.27,38.668z"/></svg>