<svg xmlns="http://www.w3.org/2000/svg" viewBox="0 0 64 80" x="0px" y="0px"><title>junk food-no-diet-nutrition</title><g><path d="M32,2A30,30,0,1,0,62,32,30.034,30.034,0,0,0,32,2Zm0,58A28,28,0,1,1,60,32,28.032,28.032,0,0,1,32,60Z"/><path d="M32,6A26,26,0,1,0,58,32,26.029,26.029,0,0,0,32,6ZM56,32a23.876,23.876,0,0,1-4.977,14.609l-.809-.809,1.772-10.635A1,1,0,0,0,51,34V28a1,1,0,0,0-1-1H48V25a1,1,0,0,0-1-1H44.582a12.878,12.878,0,0,0-1.3-3.263l-.838-1.466A11.023,11.023,0,0,1,41,13.813V11a1,1,0,0,0-1-1H36a1,1,0,0,0-1,1v2.813a11.023,11.023,0,0,1-1.449,5.458l-.838,1.466a13.013,13.013,0,0,0-1.673,5.889L17.391,12.977A23.982,23.982,0,0,1,56,32ZM38.707,34.293,38.414,34H43v4.586ZM39.012,14H36.988c0-.062.012-.124.012-.187V12h2v1.813C39,13.876,39.011,13.938,39.012,14Zm-3.725,6.263A12.99,12.99,0,0,0,36.791,16h2.418a12.99,12.99,0,0,0,1.5,4.263l.838,1.466A11,11,0,0,1,42.926,26H33.074a11,11,0,0,1,1.375-4.271ZM49,34H48V29h1Zm-3-6v6H45V26h1Zm-13,.586V28H43v4H36.414Zm12,12V36h4.819l-1.343,8.062L45.611,41.2ZM8,32a23.876,23.876,0,0,1,4.977-14.609L27.586,32H19a5.006,5.006,0,0,0-5,5v1.184a2.982,2.982,0,0,0,0,5.632V45a3,3,0,0,0,3,3H43.586l3.023,3.023A23.982,23.982,0,0,1,8,32ZM32,46H17a1,1,0,0,1-1-1V44H34v1a1,1,0,0,1-1,1ZM15,40H35a1,1,0,0,1,0,2H15a1,1,0,0,1,0-2Zm20.9,5.733c.014-.057.033-.111.044-.17A2.977,2.977,0,0,0,36,45V43.829c.034-.012.064-.03.1-.043.056-.022.109-.047.163-.073a3.035,3.035,0,0,0,.322-.175c.049-.03.1-.06.145-.093a3.05,3.05,0,0,0,.335-.276c.022-.021.047-.039.068-.06a3.059,3.059,0,0,0,.333-.4c.027-.04.05-.084.076-.125a2.991,2.991,0,0,0,.184-.339c.011-.023.027-.044.037-.068L41.586,46H35.829C35.859,45.914,35.876,45.822,35.9,45.733ZM32,38H16V37a3,3,0,0,1,3-3H29.586l1.707,1.707L33.586,38ZM48.151,49.737l-3.444-3.444-6-6-3-3-3-3-2-2L14.263,15.849q.756-.83,1.586-1.586L31.293,29.707l4,4,2,2,6,6,5.143,5.143,1.3,1.3Q48.981,48.981,48.151,49.737Z"/></g></svg>