<?xml version="1.0" encoding="utf-8"?>
<!-- Generator: Adobe Illustrator 24.1.2, SVG Export Plug-In . SVG Version: 6.00 Build 0)  -->
<svg version="1.1" id="Layer_1" xmlns="http://www.w3.org/2000/svg" xmlns:xlink="http://www.w3.org/1999/xlink" x="0px" y="0px"
	 viewBox="0 0 100 129.23" style="enable-background:new 0 0 100 129.23;" xml:space="preserve">
<style type="text/css">
	.st0{fill:#333333;}
</style>
<g>
	<path class="st0" d="M80.24,92.51c1.68-2.35,2.61-5.14,2.61-8.06v-0.54c0-0.55-0.45-1-1-1H70.63l-4-4h10.93
		c0.33,0,0.63-0.16,0.82-0.43c2.57-3.66,2.57-8.57,0-12.22c-0.19-0.27-0.49-0.42-0.82-0.42h-24l-2.14-2.14l1.59-1.59l0.29,0.26
		c0.38,0.35,0.96,0.35,1.34,0l3.74-3.39l3.74,3.39c0.19,0.17,0.43,0.26,0.67,0.26s0.48-0.09,0.67-0.26l3.74-3.39l3.74,3.39
		c0.38,0.35,0.96,0.35,1.34,0l4.42-4c0.41-0.37,0.44-1,0.07-1.41s-1-0.44-1.41-0.07l-3.74,3.39l-3.74-3.39
		c-0.38-0.35-0.96-0.35-1.34,0l-3.74,3.39l-3.74-3.39c-0.17-0.15-0.37-0.22-0.58-0.24l3.62-3.62h19.5c0.55,0,1-0.45,1-1v-6.85
		c0-3.02-1.61-5.82-4.43-8.22l12.27-12.27c0.39-0.39,0.39-1.02,0-1.41s-1.02-0.39-1.41,0L76.56,35.72
		c-5.88-4.08-15.55-6.7-26.69-6.7c-11.05,0-20.65,2.57-26.54,6.59L10.98,23.26c-0.39-0.39-1.02-0.39-1.41,0
		c-0.39,0.39-0.39,1.02,0,1.41l12.15,12.15c-2.9,2.42-4.56,5.26-4.56,8.33V52c0,0.55,0.45,1,1,1h19.75l7.25,7.25l-0.01,0.01
		l-3.74-3.39c-0.38-0.35-0.96-0.35-1.34,0l-3.73,3.39l-3.73-3.39c-0.38-0.35-0.96-0.35-1.34,0l-3.73,3.39l-3.73-3.39
		c-0.41-0.37-1.04-0.34-1.41,0.07c-0.37,0.41-0.34,1.04,0.07,1.41l4.4,4c0.38,0.35,0.96,0.35,1.34,0l3.74-3.39l3.73,3.39
		c0.38,0.35,0.96,0.35,1.35,0l3.73-3.39l3.74,3.39c0.38,0.35,0.96,0.35,1.34,0l0.75-0.68l2.01,2.01l-2.15,2.15h-24.2
		c-0.33,0-0.63,0.16-0.82,0.42c-2.57,3.66-2.57,8.57,0,12.22c0.19,0.27,0.49,0.43,0.82,0.43h11.13l-4,4H18.57c-0.55,0-1,0.45-1,1
		v0.54c0,2.83,0.85,5.53,2.43,7.82L9.56,102.72c-0.39,0.39-0.39,1.02,0,1.41c0.19,0.19,0.45,0.29,0.71,0.29s0.51-0.1,0.71-0.29
		l10.29-10.29c0.13,0.15,0.26,0.3,0.4,0.44c2.64,2.64,6.13,4.09,9.83,4.09h37.43c3.7,0,7.19-1.45,9.83-4.09
		c0.07-0.07,0.13-0.15,0.2-0.22l10.07,10.07c0.19,0.19,0.45,0.29,0.71,0.29s0.51-0.1,0.71-0.29c0.39-0.39,0.39-1.02,0-1.41
		L80.24,92.51z M80.83,84.91c-0.08,2.23-0.79,4.35-2.03,6.17l-6.17-6.17H80.83z M77.03,67.84c1.71,2.77,1.71,6.3,0,9.07h-12.4
		l-9.07-9.07H77.03z M61.81,76.91H38.19l9.07-9.07h5.46L61.81,76.91z M80.59,45.16v5.85h-16.5l5.86-5.86
		c-0.29,0.39-0.28,0.94,0.08,1.29c0.19,0.19,0.45,0.29,0.71,0.29s0.51-0.1,0.71-0.29l3.67-3.67c0.39-0.39,0.39-1.02,0-1.41
		c-0.35-0.35-0.9-0.37-1.29-0.08l2.89-2.89C79.17,40.42,80.59,42.73,80.59,45.16z M49.87,31.02c10.3,0,19.6,2.48,25.21,6.18
		L61.26,51.02H38.74L24.82,37.1C30.44,33.46,39.67,31.02,49.87,31.02z M19.16,51.02v-5.85c0-2.48,1.47-4.82,4.02-6.87l4.78,4.78
		L25,46.03c-0.39,0.39-0.39,1.02,0,1.41c0.19,0.19,0.45,0.29,0.71,0.29s0.51-0.1,0.71-0.29l2.97-2.96l6.53,6.53
		C35.91,51.02,19.16,51.02,19.16,51.02z M40.74,53.02h18.53l-6.32,6.32l-2.71-2.46c-0.38-0.35-0.96-0.35-1.34,0l-2.25,2.04
		L40.74,53.02z M48.06,60.34l1.5-1.36l1.97,1.78L50,62.28L48.06,60.34z M50,65.11l0.73,0.73h-1.46L50,65.11z M22.77,76.91
		c-1.71-2.77-1.71-6.3,0-9.07h21.67l-9.07,9.07H22.77z M36.19,78.91H63.8l4,4H32.19L36.19,78.91z M19.58,84.91h7.78l-5.91,5.92
		C20.32,89.06,19.67,87.04,19.58,84.91z M77.34,92.87c-2.26,2.26-5.25,3.5-8.42,3.5H31.49c-3.17,0-6.16-1.24-8.42-3.5
		c-0.14-0.14-0.27-0.29-0.4-0.44l7.51-7.51h39.61l7.73,7.73C77.47,92.72,77.41,92.8,77.34,92.87z"/>
	<path class="st0" d="M39.92,42.44c0.19,0.19,0.45,0.29,0.71,0.29s0.51-0.1,0.71-0.29c0.39-0.39,0.39-1.02,0-1.41l-3.67-3.67
		c-0.39-0.39-1.02-0.39-1.41,0s-0.39,1.02,0,1.41L39.92,42.44z"/>
	<path class="st0" d="M48.22,46.74c0.26,0,0.51-0.1,0.71-0.29l3.67-3.67c0.39-0.39,0.39-1.02,0-1.41s-1.02-0.39-1.41,0l-3.67,3.67
		c-0.39,0.39-0.39,1.02,0,1.41C47.71,46.64,47.97,46.74,48.22,46.74z"/>
	<path class="st0" d="M62.44,42.44c0.19,0.19,0.45,0.29,0.71,0.29s0.51-0.1,0.71-0.29c0.39-0.39,0.39-1.02,0-1.41l-3.67-3.67
		c-0.39-0.39-1.02-0.39-1.41,0s-0.39,1.02,0,1.41L62.44,42.44z"/>
</g>
</svg>
