<svg xmlns="http://www.w3.org/2000/svg" xmlns:xlink="http://www.w3.org/1999/xlink" version="1.1" x="0px" y="0px" viewBox="0 0 100 125" enable-background="new 0 0 100 100" xml:space="preserve"><g><path d="M80.235,78.82c1.685-2.347,2.606-5.135,2.606-8.063V70.22c0-0.553-0.448-1-1-1H70.634l-4.001-4.001h10.931   c0.326,0,0.631-0.158,0.818-0.425c2.569-3.656,2.569-8.568,0-12.225c-0.188-0.267-0.493-0.425-0.818-0.425H53.559L51.414,50   l1.592-1.593l0.289,0.262c0.381,0.346,0.963,0.346,1.344,0l3.735-3.39l3.736,3.39c0.19,0.173,0.431,0.26,0.672,0.26   s0.481-0.086,0.672-0.259l3.74-3.392l3.743,3.392c0.381,0.346,0.962,0.347,1.343,0l4.415-4c0.409-0.371,0.44-1.003,0.07-1.413   c-0.372-0.409-1.003-0.438-1.413-0.069l-3.743,3.392l-3.743-3.392c-0.381-0.346-0.961-0.346-1.343,0l-3.739,3.391l-3.736-3.39   c-0.166-0.15-0.37-0.223-0.578-0.242l3.624-3.624H81.59c0.552,0,1-0.447,1-1v-6.855c0-3.021-1.609-5.823-4.426-8.217l12.271-12.271   c0.391-0.391,0.391-1.023,0-1.414s-1.023-0.391-1.414,0L76.562,22.023c-5.881-4.08-15.548-6.697-26.688-6.697   c-11.046,0-20.645,2.572-26.539,6.594L10.98,9.565c-0.391-0.391-1.023-0.391-1.414,0s-0.391,1.023,0,1.414L21.72,23.133   c-2.902,2.42-4.561,5.264-4.561,8.334v6.855c0,0.553,0.448,1,1,1h19.75l7.249,7.249l-0.007,0.007l-3.736-3.39   c-0.381-0.346-0.962-0.346-1.344,0l-3.734,3.39l-3.732-3.39c-0.382-0.346-0.963-0.346-1.344,0l-3.734,3.39l-3.73-3.39   c-0.408-0.371-1.041-0.341-1.413,0.067c-0.371,0.409-0.341,1.042,0.068,1.413l4.402,4c0.381,0.346,0.963,0.346,1.344,0l3.735-3.39   l3.732,3.39c0.382,0.346,0.963,0.346,1.345,0l3.734-3.39l3.736,3.39c0.381,0.346,0.963,0.346,1.344,0l0.751-0.682L48.586,50   l-2.145,2.145H22.237c-0.326,0-0.631,0.158-0.818,0.425c-2.569,3.656-2.569,8.568,0,12.225c0.188,0.267,0.493,0.425,0.818,0.425   h11.129l-4.001,4.001h-10.79c-0.552,0-1,0.447-1,1v0.537c0,2.828,0.853,5.529,2.428,7.824L9.565,89.021   c-0.391,0.391-0.391,1.023,0,1.414c0.195,0.195,0.451,0.293,0.707,0.293s0.512-0.098,0.707-0.293l10.287-10.287   c0.133,0.146,0.257,0.297,0.397,0.438c2.636,2.636,6.127,4.088,9.829,4.088h37.433c3.704,0,7.194-1.452,9.829-4.088   c0.07-0.07,0.13-0.147,0.199-0.219l10.068,10.068c0.195,0.195,0.451,0.293,0.707,0.293s0.512-0.098,0.707-0.293   c0.391-0.391,0.391-1.023,0-1.414L80.235,78.82z M80.832,71.22c-0.085,2.226-0.789,4.348-2.025,6.173l-6.172-6.173H80.832z    M77.026,54.145c1.712,2.771,1.712,6.303,0,9.074H64.633l-9.074-9.074H77.026z M61.805,63.219h-23.61l9.074-9.074h5.462   L61.805,63.219z M80.59,31.467v5.855H64.091l5.862-5.861c-0.291,0.391-0.275,0.938,0.08,1.293c0.195,0.195,0.451,0.293,0.707,0.293   s0.512-0.098,0.707-0.293l3.667-3.668c0.391-0.391,0.391-1.023,0-1.414c-0.354-0.354-0.899-0.37-1.291-0.082l2.886-2.886   C79.172,26.727,80.59,29.036,80.59,31.467z M49.874,17.326c10.296,0,19.6,2.479,25.205,6.181L61.263,37.322H38.737L24.823,23.409   C30.443,19.761,39.67,17.326,49.874,17.326z M19.159,37.322v-5.855c0-2.476,1.474-4.824,4.021-6.874l4.782,4.783l-2.965,2.964   c-0.391,0.391-0.391,1.023,0,1.414c0.195,0.195,0.451,0.293,0.707,0.293s0.512-0.098,0.707-0.293l2.965-2.964l6.533,6.532H19.159z    M40.737,39.322h18.526l-6.324,6.324l-2.709-2.458c-0.381-0.346-0.963-0.346-1.344,0l-2.246,2.038L40.737,39.322z M48.057,46.642   l1.502-1.362l1.965,1.782L50,48.586L48.057,46.642z M50,51.414l0.731,0.73h-1.462L50,51.414z M22.775,63.219   c-1.712-2.771-1.712-6.303,0-9.074h21.666l-9.074,9.074H22.775z M36.195,65.219h27.61l4.001,4.001H32.194L36.195,65.219z    M19.585,71.22h7.781l-5.915,5.915C20.319,75.367,19.667,73.344,19.585,71.22z M77.34,79.171c-2.257,2.259-5.246,3.502-8.415,3.502   H31.492c-3.168,0-6.157-1.244-8.415-3.502c-0.14-0.141-0.266-0.291-0.398-0.437l7.515-7.515h39.612l7.733,7.732   C77.471,79.024,77.41,79.101,77.34,79.171z"/><path d="M39.924,28.75c0.195,0.195,0.451,0.293,0.707,0.293s0.512-0.098,0.707-0.293c0.391-0.391,0.391-1.023,0-1.414l-3.667-3.668   c-0.391-0.391-1.023-0.391-1.414,0s-0.391,1.023,0,1.414L39.924,28.75z"/><path d="M48.223,33.047c0.256,0,0.512-0.098,0.707-0.293l3.667-3.668c0.391-0.391,0.391-1.023,0-1.414s-1.023-0.391-1.414,0   l-3.667,3.668c-0.391,0.391-0.391,1.023,0,1.414C47.711,32.949,47.967,33.047,48.223,33.047z"/><path d="M62.442,28.75c0.195,0.195,0.451,0.293,0.707,0.293s0.512-0.098,0.707-0.293c0.391-0.391,0.391-1.023,0-1.414l-3.667-3.666   c-0.391-0.391-1.023-0.391-1.414,0s-0.391,1.023,0,1.414L62.442,28.75z"/></g></svg>