<svg xmlns="http://www.w3.org/2000/svg" xmlns:xlink="http://www.w3.org/1999/xlink" version="1.1" x="0px" y="0px" viewBox="0 0 64 80" enable-background="new 0 0 64 64" xml:space="preserve"><g><path d="M60.707,59.293c-0.199-0.2-4.729-4.636-14.51-6.864c0.459-0.771,0.84-1.583,1.129-2.429H48c2.206,0,4-1.794,4-4   s-1.794-4-4-4v2c1.103,0,2,0.897,2,2s-0.897,2-2,2h-0.183C47.926,47.345,48,46.681,48,46h-2c0,6.617-6.28,12-14,12s-14-5.383-14-12   h-2c0,0.681,0.074,1.345,0.183,2H16c-1.103,0-2-0.897-2-2s0.897-2,2-2v-2c-2.206,0-4,1.794-4,4s1.794,4,4,4h0.674   c0.289,0.847,0.671,1.658,1.129,2.429c-9.78,2.228-14.311,6.664-14.51,6.864l1.414,1.414c0.046-0.046,4.572-4.456,14.362-6.496   C21.98,57.711,26.686,60,32,60c5.315,0,10.02-2.289,12.932-5.789c9.738,2.033,14.316,6.452,14.363,6.498L60.707,59.293z"/><path d="M29,46c0,1.654,1.346,3,2.999,3C33.653,49,35,47.654,35,46v-4h-2v4c0,0.551-0.449,1-1.001,1C31.448,47,31,46.551,31,46v-4   h-2V46z"/><path d="M27.707,42.707l-1.414-1.414c-2.206,2.207-4.352,0.229-4.59-0.004l-1.41,1.418c0.755,0.755,2.174,1.637,3.812,1.637   C25.249,44.344,26.501,43.913,27.707,42.707z"/><path d="M43.707,42.707l-1.414-1.414c-2.206,2.207-4.352,0.229-4.59-0.004l-1.41,1.418c0.755,0.755,2.174,1.637,3.812,1.637   C41.249,44.344,42.501,43.913,43.707,42.707z"/><path d="M37.362,54.992l1.278-1.538c-0.067-0.056-6.718-5.471-13.281,0l1.281,1.536C31.908,50.598,37.142,54.811,37.362,54.992z"/><path d="M44.707,30.707c0.391-0.391,0.391-1.023,0-1.414s-1.023-0.391-1.414,0l-1,1c-0.391,0.391-0.391,1.023,0,1.414   C42.488,31.902,42.744,32,43,32s0.512-0.098,0.707-0.293L44.707,30.707z"/><path d="M37.293,29.293l-1,1c-0.391,0.391-0.391,1.023,0,1.414C36.488,31.902,36.744,32,37,32s0.512-0.098,0.707-0.293l1-1   c0.391-0.391,0.391-1.023,0-1.414S37.684,28.902,37.293,29.293z"/><path d="M31.293,29.293l-1,1c-0.391,0.391-0.391,1.023,0,1.414C30.488,31.902,30.744,32,31,32s0.512-0.098,0.707-0.293l1-1   c0.391-0.391,0.391-1.023,0-1.414S31.684,28.902,31.293,29.293z"/><path d="M25.293,29.293l-1,1c-0.391,0.391-0.391,1.023,0,1.414C24.488,31.902,24.744,32,25,32s0.512-0.098,0.707-0.293l1-1   c0.391-0.391,0.391-1.023,0-1.414S25.684,28.902,25.293,29.293z"/><path d="M20.707,29.293c-0.391-0.391-1.023-0.391-1.414,0l-1,1c-0.391,0.391-0.391,1.023,0,1.414C18.488,31.902,18.744,32,19,32   s0.512-0.098,0.707-0.293l1-1C21.098,30.316,21.098,29.684,20.707,29.293z"/><path d="M45,36c0.256,0,0.512-0.098,0.707-0.293l1-1c0.391-0.391,0.391-1.023,0-1.414s-1.023-0.391-1.414,0l-1,1   c-0.391,0.391-0.391,1.023,0,1.414C44.488,35.902,44.744,36,45,36z"/><path d="M38.293,35.707C38.488,35.902,38.744,36,39,36s0.512-0.098,0.707-0.293l1-1c0.391-0.391,0.391-1.023,0-1.414   s-1.023-0.391-1.414,0l-1,1C37.902,34.684,37.902,35.316,38.293,35.707z"/><path d="M32.293,35.707C32.488,35.902,32.744,36,33,36s0.512-0.098,0.707-0.293l1-1c0.391-0.391,0.391-1.023,0-1.414   s-1.023-0.391-1.414,0l-1,1C31.902,34.684,31.902,35.316,32.293,35.707z"/><path d="M27.293,33.293l-1,1c-0.391,0.391-0.391,1.023,0,1.414C26.488,35.902,26.744,36,27,36s0.512-0.098,0.707-0.293l1-1   c0.391-0.391,0.391-1.023,0-1.414S27.684,32.902,27.293,33.293z"/><path d="M21,36c0.256,0,0.512-0.098,0.707-0.293l1-1c0.391-0.391,0.391-1.023,0-1.414s-1.023-0.391-1.414,0l-1,1   c-0.391,0.391-0.391,1.023,0,1.414C20.488,35.902,20.744,36,21,36z"/><path d="M20,28v-0.046C21.144,28,25.544,28,44.001,28v0C47.31,28,50,25.308,50,22c0-3.09-2.349-5.641-5.354-5.964   C43.3,10.293,38.147,6,32,6c-6.863,0-12.502,5.347-12.969,12.094C16.736,18.546,15,20.574,15,23C15,25.757,17.243,28,20,28z M20,20   h1v-1c0-6.065,4.935-11,11-11s11,4.935,11,11v1h2v-1c0-0.294-0.024-0.583-0.044-0.872C46.699,18.56,48,20.125,48,22   c0,2.206-1.794,4-4,4v0c-0.021,0-23.799,0-24,0c-1.654,0-3-1.346-3-3S18.346,20,20,20z"/></g></svg>