<?xml version="1.0" encoding="utf-8"?>
<!-- Generator: Adobe Illustrator 24.1.2, SVG Export Plug-In . SVG Version: 6.00 Build 0)  -->
<svg version="1.1" id="Layer_1" xmlns="http://www.w3.org/2000/svg" xmlns:xlink="http://www.w3.org/1999/xlink" x="0px" y="0px"
	 viewBox="0 0 64 76.21" style="enable-background:new 0 0 64 76.21;" xml:space="preserve">
<style type="text/css">
	.st0{fill:#333333;}
</style>
<g>
	<path class="st0" d="M60.71,61.45c-0.2-0.2-4.73-4.64-14.51-6.86c0.46-0.77,0.84-1.58,1.13-2.43H48c2.21,0,4-1.79,4-4s-1.79-4-4-4
		v2c1.1,0,2,0.9,2,2s-0.9,2-2,2h-0.18c0.11-0.65,0.18-1.32,0.18-2h-2c0,6.62-6.28,12-14,12s-14-5.38-14-12h-2
		c0,0.68,0.07,1.35,0.18,2H16c-1.1,0-2-0.9-2-2s0.9-2,2-2v-2c-2.21,0-4,1.79-4,4s1.79,4,4,4h0.67c0.29,0.85,0.67,1.66,1.13,2.43
		c-9.78,2.23-14.31,6.66-14.51,6.86l1.41,1.41c0.05-0.05,4.57-4.46,14.36-6.5c2.92,3.51,7.63,5.8,12.94,5.8s10.02-2.29,12.93-5.79
		c9.74,2.03,14.32,6.45,14.36,6.5L60.71,61.45z"/>
	<path class="st0" d="M29,48.16c0,1.65,1.35,3,3,3c1.65,0,3-1.35,3-3v-4h-2v4c0,0.55-0.45,1-1,1s-1-0.45-1-1v-4h-2V48.16z"/>
	<path class="st0" d="M27.71,44.87l-1.41-1.41c-2.21,2.21-4.35,0.23-4.59,0l-1.41,1.42c0.75,0.76,2.17,1.64,3.81,1.64
		C25.25,46.5,26.5,46.07,27.71,44.87z"/>
	<path class="st0" d="M43.71,44.87l-1.41-1.41c-2.21,2.21-4.35,0.23-4.59,0l-1.41,1.42c0.76,0.76,2.17,1.64,3.81,1.64
		C41.25,46.5,42.5,46.07,43.71,44.87z"/>
	<path class="st0" d="M37.36,57.15l1.28-1.54c-0.07-0.06-6.72-5.47-13.28,0l1.28,1.54C31.91,52.76,37.14,56.97,37.36,57.15z"/>
	<path class="st0" d="M44.71,32.87c0.39-0.39,0.39-1.02,0-1.41s-1.02-0.39-1.41,0l-1,1c-0.39,0.39-0.39,1.02,0,1.41
		c0.19,0.19,0.44,0.29,0.7,0.29s0.51-0.1,0.71-0.29L44.71,32.87z"/>
	<path class="st0" d="M37.29,31.45l-1,1c-0.39,0.39-0.39,1.02,0,1.41c0.2,0.2,0.45,0.3,0.71,0.3s0.51-0.1,0.71-0.29l1-1
		c0.39-0.39,0.39-1.02,0-1.41S37.68,31.06,37.29,31.45z"/>
	<path class="st0" d="M31.29,31.45l-1,1c-0.39,0.39-0.39,1.02,0,1.41c0.2,0.2,0.45,0.3,0.71,0.3s0.51-0.1,0.71-0.29l1-1
		c0.39-0.39,0.39-1.02,0-1.41S31.68,31.06,31.29,31.45z"/>
	<path class="st0" d="M25.29,31.45l-1,1c-0.39,0.39-0.39,1.02,0,1.41c0.2,0.2,0.45,0.3,0.71,0.3s0.51-0.1,0.71-0.29l1-1
		c0.39-0.39,0.39-1.02,0-1.41S25.68,31.06,25.29,31.45z"/>
	<path class="st0" d="M20.71,31.45c-0.39-0.39-1.02-0.39-1.41,0l-1,1c-0.39,0.39-0.39,1.02,0,1.41c0.19,0.2,0.44,0.3,0.7,0.3
		s0.51-0.1,0.71-0.29l1-1C21.1,32.48,21.1,31.84,20.71,31.45z"/>
	<path class="st0" d="M45,38.16c0.26,0,0.51-0.1,0.71-0.29l1-1c0.39-0.39,0.39-1.02,0-1.41s-1.02-0.39-1.41,0l-1,1
		c-0.39,0.39-0.39,1.02,0,1.41C44.49,38.06,44.74,38.16,45,38.16z"/>
	<path class="st0" d="M38.29,37.87c0.2,0.19,0.45,0.29,0.71,0.29s0.51-0.1,0.71-0.29l1-1c0.39-0.39,0.39-1.02,0-1.41
		s-1.02-0.39-1.41,0l-1,1C37.9,36.84,37.9,37.48,38.29,37.87z"/>
	<path class="st0" d="M32.29,37.87c0.2,0.19,0.45,0.29,0.71,0.29s0.51-0.1,0.71-0.29l1-1c0.39-0.39,0.39-1.02,0-1.41
		s-1.02-0.39-1.41,0l-1,1C31.9,36.84,31.9,37.48,32.29,37.87z"/>
	<path class="st0" d="M27.29,35.45l-1,1c-0.39,0.39-0.39,1.02,0,1.41c0.2,0.2,0.45,0.3,0.71,0.3s0.51-0.1,0.71-0.29l1-1
		c0.39-0.39,0.39-1.02,0-1.41S27.68,35.06,27.29,35.45z"/>
	<path class="st0" d="M21,38.16c0.26,0,0.51-0.1,0.71-0.29l1-1c0.39-0.39,0.39-1.02,0-1.41s-1.02-0.39-1.41,0l-1,1
		c-0.39,0.39-0.39,1.02,0,1.41C20.49,38.06,20.74,38.16,21,38.16z"/>
	<path class="st0" d="M20,30.16v-0.05c1.14,0.05,5.54,0.05,24,0.05l0,0c3.31,0,6-2.69,6-6c0-3.09-2.35-5.64-5.35-5.96
		C43.3,12.45,38.15,8.16,32,8.16c-6.86,0-12.5,5.35-12.97,12.09C16.74,20.71,15,22.73,15,25.16C15,27.92,17.24,30.16,20,30.16z
		 M20,22.16h1v-1c0-6.07,4.93-11,11-11s11,4.93,11,11v1h2v-1c0-0.29-0.02-0.58-0.04-0.87C46.7,20.72,48,22.28,48,24.16
		c0,2.21-1.79,4-4,4l0,0c-0.02,0-23.8,0-24,0c-1.65,0-3-1.35-3-3S18.35,22.16,20,22.16z"/>
</g>
</svg>
