<?xml version="1.0" encoding="utf-8"?>
<!-- Generator: Adobe Illustrator 24.1.2, SVG Export Plug-In . SVG Version: 6.00 Build 0)  -->
<svg version="1.1"
	 id="Layer_1" xmlns:cc="http://creativecommons.org/ns#" xmlns:dc="http://purl.org/dc/elements/1.1/" xmlns:inkscape="http://www.inkscape.org/namespaces/inkscape" xmlns:rdf="http://www.w3.org/1999/02/22-rdf-syntax-ns#" xmlns:sodipodi="http://sodipodi.sourceforge.net/DTD/sodipodi-0.dtd" xmlns:svg="http://www.w3.org/2000/svg"
	 xmlns="http://www.w3.org/2000/svg" xmlns:xlink="http://www.w3.org/1999/xlink" x="0px" y="0px" viewBox="0 0 100 130.27"
	 style="enable-background:new 0 0 100 130.27;" xml:space="preserve">
<style type="text/css">
	.st0{fill:#333333;}
</style>
<g transform="translate(0,-952.36218)">
	<path class="st0" d="M37.84,971.53c-5.55,0.13-10.8,3.82-13.47,10.71c-7,2.58-12,7.26-14.5,13.02c-2.4,5.53-2.52,11.97-0.16,18.38
		c-0.93,0-1.89,0-2.81,0c-0.49,0.05-0.91,0.51-0.91,1c0,11.99,3.8,23.14,9.81,31.34c6,8.17,14.25,13.43,23.12,13.45
		c7.58,0.19,16.06,0.08,22.06,0c8.9,0,17.18-5.29,23.19-13.48c6.01-8.2,9.81-19.33,9.81-31.3c0-0.52-0.48-1-1-1h-5.09
		c1.98-2.82,3.46-5.27,3.94-7.83c0.53-2.85-0.36-5.77-2.66-9.11c3.32-7.96,1.28-14.77-3.22-18.41c-4.43-3.59-11.05-4.05-16.75-0.37
		c-2.66-2.28-6.01-3.03-9.19-2.4c-2.98,0.59-5.78,2.33-7.88,4.87C48.49,974.54,43.14,971.4,37.84,971.53L37.84,971.53z
		 M37.87,973.53c4.63-0.11,9.55,2.59,12.91,8.21c-0.83,1.9-1.03,3.69-0.78,5.43c0.08,0.55,0.21,1.09,0.38,1.62l-17.78-7.27
		c-0.72-0.21-0.98,0.24-1.34,0.66c-0.53,1.93-0.86,3.76-1.06,5.49c-1.15-2.16-2.91-3.66-4.16-4.34
		C28.06,977.6,32.85,973.76,37.87,973.53z M68.41,979.77c0.33,0.32,0.9,0.37,1.28,0.09c5.16-3.7,11.13-3.19,15.03-0.03
		s5.83,8.98,2.47,16.54c-0.14,0.31-0.1,0.69,0.09,0.97c2.41,3.32,3.04,5.7,2.59,8.11c-0.43,2.35-2.03,4.89-4.41,8.18H56.28
		l5.38-5.65c2.72,0.02,5.1,0.2,6.62,1.72c0.37,0.38,1.05,0.38,1.42,0.02s0.38-1.04,0.02-1.42c-1.72-1.72-3.98-2.09-6.25-2.18
		l6.31-6.62c3.13-0.02,5.87,0.18,7.5,1.72c0.37,0.38,1.05,0.38,1.42,0.02c0.38-0.37,0.38-1.04,0.02-1.42
		c-1.94-1.94-4.55-2.18-7.09-2.22l6.09-6.4c0.41-0.42,0.22-1.15-0.22-1.5c-0.54-0.34-0.77-0.08-1.22,0.12l-5.59,5.84
		c-0.37-2.53-1.26-5.13-2.97-6.84c-0.23-0.26-0.6-0.38-0.94-0.31c-0.73,0.13-1.04,1.22-0.5,1.72c1.46,1.46,2.44,4.63,2.66,7.27
		l-7.16,7.46c-0.29-2.77-1.17-5.76-3.06-7.65c-0.23-0.26-0.6-0.38-0.94-0.31c-0.73,0.13-1.04,1.22-0.5,1.72
		c1.62,1.62,2.68,5.35,2.72,8.11l-6.5,6.8h-5.41c0.58-1.26,0.91-2.65,0.91-4.12c0.01-6.77,1.99-12.65,4.81-16.42
		c0.22-0.29,0.25-0.7,0.09-1.03c-0.99-1.97-1.68-3.62-1.91-5.18c-0.51-4.76,4.25-8.53,8.44-9.43
		C63.34,976.91,66.63,978.07,68.41,979.77L68.41,979.77z M33.91,984.2l6.91,2.84c-0.74,0.09-1.31,0.7-1.31,1.47
		c0,0.83,0.67,1.5,1.5,1.5s1.5-0.67,1.5-1.5c0-0.34-0.12-0.65-0.31-0.91l4.03,1.62c-0.43,0.26-0.72,0.74-0.72,1.28
		c0,0.83,0.67,1.5,1.5,1.5c1.13-0.18,1.48-0.86,1.47-1.84l2.91,1.19c0.32,0.41,0.33,0.93,0.41,1.25c-0.33-0.65-1-1.09-1.78-1.09
		c-1.1,0-2,0.89-2,2c0,1.1,0.9,2,2,2c0.03,0,0.06,0,0.09,0c-0.79,1.59-1.47,3.35-1.97,5.24c-0.88-0.61-1.84-1.39-2.88-2.28
		c0.99-0.12,1.75-0.95,1.75-1.97c0-1.1-0.9-2-2-2c-1.08,0-1.97,0.86-2,1.94c-0.98-0.95-1.96-1.96-2.91-3.03
		C37.79,990.43,35.3,987.35,33.91,984.2L33.91,984.2z M23.69,984.61c3.06,1.75,5.03,3.99,6.28,6.4c-0.03,4.15,0.82,7.84,2,11.45
		c-1.7,1.7-2.81,4-2.94,6.55c-1.22-2.06-3.47-3.43-6.03-3.43c-3.85,0-7,3.14-7,6.99c0,0.36,0.04,0.71,0.09,1.06h-4.25
		c-2.47-6.21-2.39-12.39-0.12-17.6C13.97,990.5,19.22,986.58,23.69,984.61z M32.5,986.04c1.42,2.9,3.65,5.91,6.09,8.68
		c3.06,3.46,6.42,6.44,9.06,8.11c-0.08,0.43-0.18,0.87-0.25,1.31c-1.78-2.77-4.87-4.62-8.41-4.62c-1.99,0-3.85,0.59-5.41,1.59
		C32.15,996.46,31.48,991.8,32.5,986.04L32.5,986.04z M43.5,990.5c-0.83,0-1.5,0.67-1.5,1.5s0.67,1.5,1.5,1.5s1.5-0.67,1.5-1.5
		S44.33,990.5,43.5,990.5z M39,1001.52c4.43,0,8,3.57,8,7.99c0,1.97-0.5,3.01-1.16,4.12H32.16c-0.73-1.2-1.16-2.61-1.16-4.12
		C31.14,1004.57,35.28,1001.63,39,1001.52z M23,1007.58c2.77,0,5,2.22,5,4.99c0,0.37-0.05,0.71-0.12,1.06h-9.75
		c-0.08-0.35-0.12-0.69-0.12-1.06C18,1009.8,20.23,1007.58,23,1007.58z M8.06,1015.63h83.88c-0.06,3.41-0.47,6.75-1.12,9.96H9.19
		C8.53,1022.38,8.13,1019.04,8.06,1015.63z M9.62,1027.58h80.75c-1.59,6.49-4.3,12.38-7.81,17.17
		c-5.73,7.81-13.44,12.66-21.53,12.67c-7.03,0.08-15.03,0.08-22.03,0c-8.1,0-15.82-4.82-21.56-12.64
		C13.92,1039.99,11.21,1034.09,9.62,1027.58L9.62,1027.58z"/>
</g>
</svg>
