<svg xmlns:dc="http://purl.org/dc/elements/1.1/" xmlns:cc="http://creativecommons.org/ns#" xmlns:rdf="http://www.w3.org/1999/02/22-rdf-syntax-ns#" xmlns:svg="http://www.w3.org/2000/svg" xmlns="http://www.w3.org/2000/svg" xmlns:sodipodi="http://sodipodi.sourceforge.net/DTD/sodipodi-0.dtd" xmlns:inkscape="http://www.inkscape.org/namespaces/inkscape" version="1.1" x="0px" y="0px" viewBox="0 0 100 125"><g transform="translate(0,-952.36218)"><path style="text-indent:0;text-transform:none;direction:ltr;block-progression:tb;baseline-shift:baseline;color:#000000;enable-background:accumulate;" d="m 37.843729,958.36571 c -5.54999,0.13004 -10.79981,3.81539 -13.46875,10.70543 -6.99927,2.57743 -11.99857,7.25944 -14.4999999,13.01505 -2.40151,5.5257 -2.51798,11.97042 -0.15625,18.38331 -0.93297,0 -1.88711,0 -2.81245,0 -0.49158,0.046 -0.90838,0.5057 -0.90625,0.9988 0,11.9852 3.80047,23.1425 9.8124999,31.3359 5.99794,8.1743 14.25117,13.4273 23.125,13.452 7.58262,0.1912 16.06245,0.081 22.06245,0 8.89822,0 17.17566,-5.2861 23.1875,-13.4832 6.01189,-8.1971 9.8125,-19.3346 9.8125,-31.3047 -5e-5,-0.5229 -0.47642,-0.9987 -1,-0.9988 l -5.09375,0 c 1.98392,-2.82147 3.46301,-5.26585 3.9375,-7.83395 0.52604,-2.8471 -0.3589,-5.77283 -2.65625,-9.11365 3.32441,-7.95903 1.28427,-14.76532 -3.21875,-18.41459 -4.42681,-3.58748 -11.05409,-4.05475 -16.75,-0.37453 -2.66137,-2.28387 -6.01126,-3.02838 -9.1875,-2.40325 -2.98046,0.58658 -5.77637,2.32916 -7.875,4.86893 -3.66398,-5.82532 -9.01399,-8.9569 -14.3125,-8.83275 z m 0.0312,1.99751 c 4.62607,-0.10839 9.54972,2.5862 12.90625,8.20854 -0.82526,1.90372 -1.02959,3.69454 -0.78125,5.43074 0.0783,0.54711 0.21496,1.08605 0.375,1.62298 l -17.78125,-7.27221 c -0.71706,-0.21206 -0.97809,0.23559 -1.3437,0.65544 -0.52851,1.92694 -0.86491,3.7589 -1.0625,5.49317 -1.1456,-2.1622 -2.90884,-3.6574 -4.15625,-4.33835 2.03255,-5.72716 6.82267,-9.56292 11.8437,-9.80031 z m 30.53125,6.24223 c 0.33368,0.32348 0.90398,0.36516 1.28125,0.0936 5.16456,-3.69617 11.13257,-3.19076 15.03125,-0.0312 3.89868,3.15951 5.82978,8.98203 2.46875,16.54192 -0.1356,0.31011 -0.0989,0.68913 0.0937,0.96754 2.40962,3.31969 3.03976,5.70094 2.59375,8.1149 -0.43427,2.35039 -2.02999,4.88746 -4.40625,8.17729 l -29.1875,0 5.375,-5.64918 c 2.71712,0.0181 5.1038,0.1973 6.625,1.71661 0.36816,0.37587 1.04554,0.38331 1.42188,0.0156 0.37634,-0.3677 0.38378,-1.04424 0.0156,-1.42011 -1.72396,-1.72182 -3.98423,-2.08952 -6.25,-2.18478 l 6.3125,-6.61676 c 3.13463,-0.0242 5.87134,0.1819 7.5,1.71662 0.36804,0.37635 1.04591,0.38406 1.42243,0.0162 0.37653,-0.36788 0.38371,-1.04491 0.0151,-1.42067 -1.93852,-1.93612 -4.55433,-2.17658 -7.09375,-2.21599 l 6.09375,-6.39829 c 0.4115,-0.41883 0.22033,-1.14746 -0.21601,-1.4972 -0.54287,-0.34272 -0.76785,-0.0804 -1.22149,0.12391 l -5.59375,5.83648 c -0.37201,-2.5291 -1.26408,-5.13269 -2.96875,-6.83525 -0.23035,-0.25588 -0.5995,-0.37878 -0.9375,-0.3121 -0.72703,0.13173 -1.04282,1.21593 -0.5,1.71662 1.45823,1.45641 2.44487,4.63478 2.65625,7.27218 l -7.15625,7.45948 c -0.2922,-2.77359 -1.17456,-5.76114 -3.0625,-7.64674 -0.23035,-0.25589 -0.5995,-0.3788 -0.9375,-0.31211 -0.72703,0.13173 -1.04282,1.21592 -0.5,1.71661 1.61714,1.61514 2.68141,5.35329 2.71875,8.1149 l -6.5,6.80407 -5.40625,0 c 0.57761,-1.26136 0.90634,-2.64559 0.90634,-4.11993 0.0123,-6.77421 1.985,-12.65174 4.8125,-16.41705 0.21514,-0.29178 0.25267,-0.70426 0.0937,-1.02997 -0.98509,-1.96774 -1.68265,-3.61778 -1.90625,-5.18105 -0.50508,-4.76283 4.24565,-8.52969 8.4375,-9.42578 2.89937,-0.55172 6.19478,0.61191 7.96875,2.30963 z m -34.5,4.43199 6.90625,2.84021 c -0.74128,0.0909 -1.3125,0.702 -1.3125,1.46693 0,0.8274 0.67157,1.49814 1.5,1.49814 0.82843,0 1.5,-0.67074 1.5,-1.49814 0,-0.34191 -0.11946,-0.653 -0.3125,-0.90512 l 4.03125,1.62297 c -0.43297,0.26276 -0.71875,0.73668 -0.71875,1.27966 0,0.8274 0.67157,1.49814 1.5,1.49814 1.13263,-0.18053 1.48033,-0.85604 1.4688,-1.84146 l 2.90625,1.18602 c 0.3152,0.4068 0.33183,0.9289 0.4063,1.24845 -0.33014,-0.64944 -1.00207,-1.09239 -1.78125,-1.09239 -1.10457,0 -2,0.89432 -2,1.99751 0,1.10319 0.89543,1.99751 2,1.99751 0.0317,0 0.0624,10e-4 0.0937,0 -0.78664,1.59039 -1.46556,3.3521 -1.96875,5.24347 -0.87783,-0.60593 -1.84103,-1.38862 -2.875,-2.27841 0.98571,-0.12366 1.75,-0.94828 1.75,-1.9663 0,-1.1032 -0.89543,-1.99751 -2,-1.99751 -1.08345,0 -1.96666,0.86107 -2,1.93509 -0.97979,-0.9491 -1.96309,-1.96036 -2.90625,-3.02748 -2.30402,-2.97433 -4.79713,-6.05278 -6.18755,-9.20729 z m -10.21875,0.40574 c 3.05754,1.74557 5.03379,3.98985 6.28125,6.39829 -0.026,4.14846 0.81674,7.83873 2,11.45449 -1.70124,1.69952 -2.811,3.9957 -2.9375,6.55434 -1.22145,-2.05589 -3.47355,-3.43323 -6.03125,-3.43323 -3.85414,0 -7,3.14195 -7,6.9913 0,0.36088 0.0405,0.71473 0.0937,1.06113 l -4.25,0 c -2.4659897,-6.20962 -2.3909997,-12.38915 -0.125,-17.60304 2.24873,-5.53359 7.5061,-9.4496 11.9688,-11.42328 z m 8.8125,1.43572 c 1.4178,2.9048 3.65152,5.91344 6.09375,8.6767 3.05765,3.45957 6.41595,6.43696 9.0625,8.1149 -0.0837,0.42926 -0.18211,0.87028 -0.25,1.31087 -1.77952,-2.77272 -4.87341,-4.61926 -8.40625,-4.61926 -1.98894,0 -3.84982,0.58693 -5.40625,1.59177 -1.4418,-4.65289 -2.11442,-9.32003 -1.09375,-15.07498 z m 11,4.46319 c -0.82843,0 -1.5,0.67074 -1.5,1.49814 0,0.82739 0.67157,1.49813 1.5,1.49813 0.82843,0 1.5,-0.67074 1.5,-1.49813 0,-0.8274 -0.67157,-1.49814 -1.5,-1.49814 z m -4.5,11.01754 c 4.43012,0 8,3.56544 8,7.99004 5e-5,1.96544 -0.50231,3.01258 -1.15625,4.11983 l -13.6875,0 c -0.72664,-1.20395 -1.1562,-2.60656 -1.1562,-4.11983 0.13737,-4.94219 4.28128,-7.87778 7.99995,-7.99004 z m -16,6.05496 c 2.77327,0 5,2.22397 5,4.99378 0,0.37046 -0.0494,0.71423 -0.125,1.06113 l -9.75,0 c -0.0756,-0.3469 -0.125,-0.69067 -0.125,-1.06113 0,-2.76981 2.22674,-4.99378 5,-4.99378 z m -14.9374999,8.05251 83.8749999,0 c -0.064,3.4118 -0.4683,6.7494 -1.125,9.9562 l -81.6249999,0 c -0.65631,-3.2106 -1.06104,-6.5412 -1.125,-9.9562 z m 1.5625,11.9537 80.7499999,0 c -1.58888,6.4902 -4.3036,12.3818 -7.8125,17.1662 -5.7308,7.8139 -13.44081,12.6593 -21.53125,12.6717 -7.0312,0.077 -15.0312,0.077 -22.0312,0 -8.10238,0 -15.82453,-4.8206 -21.5625,-12.6405 -3.51364,-4.7885 -6.22453,-10.6872 -7.8124999,-17.1974 z" fill="#000000" fill-opacity="1" stroke="none" marker="none" visibility="visible" display="inline" overflow="visible"/></g></svg>